<?xml version="1.0" standalone="no"?><!DOCTYPE svg PUBLIC "-//W3C//DTD SVG 1.1//EN" "http://www.w3.org/Graphics/SVG/1.1/DTD/svg11.dtd"><svg class="icon" width="200px" height="163.58px" viewBox="0 0 1252 1024" version="1.1" xmlns="http://www.w3.org/2000/svg"><path d="M170.658635 0h56.889224v56.889224h-56.889224zM227.552376 967.112282h56.889224v56.889224h-56.889224zM113.776941 967.112282h56.889224v56.889224H113.776941zM56.881694 910.220047h56.889224v56.889224H56.881694zM56.881694 625.779953h56.889224v56.889223H56.881694zM56.881694 512h56.889224v56.889224H56.881694zM113.776941 398.220047h56.889224v56.889224H113.776941zM56.881694 284.444612h56.889224v56.889223H56.881694zM56.881694 170.664659h56.889224v56.889223H56.881694z" fill="#3A2802" /><path d="M56.881694 853.335341h56.889224v56.889224H56.881694zM56.881694 568.887718h56.889224v56.889223H56.881694zM56.881694 455.112282h56.889224v56.889224H56.881694zM113.776941 341.335341h56.889224v56.889224H113.776941zM56.881694 227.555388h56.889224v56.889224H56.881694zM56.881694 113.779953h56.889224v56.889223H56.881694zM113.776941 56.887718h56.889224v56.889223H113.776941zM113.776941 796.444612h56.889224v56.889223H113.776941zM56.881694 739.555388h56.889224v56.889224H56.881694zM0 682.664659h56.889224v56.889223H0zM227.552376 0h56.889224v56.889224h-56.889224zM284.447624 967.112282h56.889223v56.889224h-56.889223zM170.658635 967.112282h56.889224v56.889224h-56.889224zM341.341365 0h56.889223v56.889224h-56.889223zM398.223059 967.112282h56.889223v56.889224h-56.889223zM455.118306 0h56.889223v56.889224h-56.889223zM512 967.112282h56.889224v56.889224H512zM568.881694 0h56.889224v56.889224h-56.889224zM625.776941 967.112282h56.889224v56.889224h-56.889224zM682.658635 0h56.889224v56.889224h-56.889224zM739.552376 967.112282h56.889224v56.889224h-56.889224zM796.447624 0h56.889223v56.889224h-56.889223zM853.341365 967.112282h56.889223v56.889224h-56.889223zM910.223059 0h56.889223v56.889224h-56.889223zM967.118306 967.112282h56.889223v56.889224h-56.889223zM284.447624 0h56.889223v56.889224h-56.889223z" fill="#3A2802" /><path d="M341.341365 967.112282h56.889223v56.889224h-56.889223zM398.223059 0h56.889223v56.889224h-56.889223zM455.118306 967.112282h56.889223v56.889224h-56.889223z" fill="#3A2802" /><path d="M113.776941 910.220047h56.889224v56.889224H113.776941z" fill="#CE7F03" /><path d="M113.776941 284.444612h56.889224v56.889223H113.776941zM113.776941 227.555388h56.889224v56.889224H113.776941zM113.776941 170.664659h56.889224v56.889223H113.776941z" fill="#FFCF00" /><path d="M113.776941 113.779953h56.889224v56.889223H113.776941z" fill="#FFCF00" /><path d="M113.776941 739.555388h56.889224v56.889224H113.776941z" fill="#B21515" /><path d="M113.776941 682.664659h56.889224v56.889223H113.776941z" fill="#FF0303" /><path d="M113.776941 625.779953h56.889224v56.889223H113.776941z" fill="#9D4B13" /><path d="M113.776941 568.887718h56.889224v56.889223H113.776941z" fill="#FFE84E" /><path d="M113.776941 512h56.889224v56.889224H113.776941z" fill="#FFE84E" /><path d="M113.776941 455.112282h56.889224v56.889224H113.776941z" fill="#FFE84E" /><path d="M113.776941 853.335341h56.889224v56.889224H113.776941z" fill="#FF9C00" /><path d="M170.658635 910.220047h56.889224v56.889224h-56.889224z" fill="#CE7F03" /><path d="M170.658635 284.444612h56.889224v56.889223h-56.889224zM170.658635 227.555388h56.889224v56.889224h-56.889224z" fill="#FFCF00" /><path d="M170.658635 170.664659h56.889224v56.889223h-56.889224z" fill="#FFDBBA" /><path d="M170.658635 113.779953h56.889224v56.889223h-56.889224z" fill="#FFCF00" /><path d="M170.658635 56.887718h56.889224v56.889223h-56.889224z" fill="#FFDBBA" /><path d="M170.658635 341.335341h56.889224v56.889224h-56.889224z" fill="#78C037" /><path d="M170.658635 398.220047h56.889224v56.889224h-56.889224z" fill="#37C037" /><path d="M170.658635 739.555388h56.889224v56.889224h-56.889224z" fill="#B21515" /><path d="M170.658635 682.664659h56.889224v56.889223h-56.889224z" fill="#FF0303" /><path d="M170.658635 625.779953h56.889224v56.889223h-56.889224z" fill="#9D4B13" /><path d="M170.658635 568.887718h56.889224v56.889223h-56.889224z" fill="#C0733E" /><path d="M170.658635 512h56.889224v56.889224h-56.889224z" fill="#9D4B13" /><path d="M170.658635 455.112282h56.889224v56.889224h-56.889224z" fill="#FFE84E" /><path d="M170.658635 853.335341h56.889224v56.889224h-56.889224zM170.658635 796.444612h56.889224v56.889223h-56.889224z" fill="#FF9C00" /><path d="M227.552376 910.220047h56.889224v56.889224h-56.889224z" fill="#CE7F03" /><path d="M227.552376 284.444612h56.889224v56.889223h-56.889224z" fill="#FFB600" /><path d="M227.552376 227.555388h56.889224v56.889224h-56.889224zM227.552376 170.664659h56.889224v56.889223h-56.889224z" fill="#FFCF00" /><path d="M227.552376 113.779953h56.889224v56.889223h-56.889224zM227.552376 56.887718h56.889224v56.889223h-56.889224z" fill="#FFCF00" /><path d="M227.552376 341.335341h56.889224v56.889224h-56.889224z" fill="#66F166" /><path d="M227.552376 398.220047h56.889224v56.889224h-56.889224z" fill="#37C037" /><path d="M227.552376 739.555388h56.889224v56.889224h-56.889224z" fill="#B21515" /><path d="M227.552376 682.664659h56.889224v56.889223h-56.889224z" fill="#9D4B13" /><path d="M227.552376 625.779953h56.889224v56.889223h-56.889224z" fill="#9D4B13" /><path d="M227.552376 568.887718h56.889224v56.889223h-56.889224z" fill="#77370C" /><path d="M227.552376 512h56.889224v56.889224h-56.889224z" fill="#FFE84E" /><path d="M227.552376 455.112282h56.889224v56.889224h-56.889224z" fill="#FFE84E" /><path d="M227.552376 853.335341h56.889224v56.889224h-56.889224zM227.552376 796.444612h56.889224v56.889223h-56.889224z" fill="#FF9C00" /><path d="M284.447624 910.220047h56.889223v56.889224h-56.889223z" fill="#CE7F03" /><path d="M284.447624 284.444612h56.889223v56.889223h-56.889223z" fill="#FFB600" /><path d="M284.447624 227.555388h56.889223v56.889224h-56.889223zM284.447624 170.664659h56.889223v56.889223h-56.889223z" fill="#FFCF00" /><path d="M284.447624 113.779953h56.889223v56.889223h-56.889223zM284.447624 56.887718h56.889223v56.889223h-56.889223z" fill="#FFCF00" /><path d="M284.447624 341.335341h56.889223v56.889224h-56.889223z" fill="#66F166" /><path d="M284.447624 398.220047h56.889223v56.889224h-56.889223z" fill="#78C037" /><path d="M284.447624 739.555388h56.889223v56.889224h-56.889223z" fill="#B21515" /><path d="M284.447624 682.664659h56.889223v56.889223h-56.889223z" fill="#FF0303" /><path d="M284.447624 625.779953h56.889223v56.889223h-56.889223z" fill="#77370C" /><path d="M284.447624 568.887718h56.889223v56.889223h-56.889223z" fill="#C0743F" /><path d="M284.447624 512h56.889223v56.889224h-56.889223z" fill="#77370C" /><path d="M284.447624 455.112282h56.889223v56.889224h-56.889223z" fill="#37C037" /><path d="M284.447624 853.335341h56.889223v56.889224h-56.889223zM284.447624 796.444612h56.889223v56.889223h-56.889223z" fill="#FF9C00" /><path d="M341.341365 910.220047h56.889223v56.889224h-56.889223z" fill="#CE7F03" /><path d="M341.341365 284.444612h56.889223v56.889223h-56.889223z" fill="#FFB600" /><path d="M341.341365 227.555388h56.889223v56.889224h-56.889223zM341.341365 170.664659h56.889223v56.889223h-56.889223z" fill="#FFCF00" /><path d="M341.341365 113.779953h56.889223v56.889223h-56.889223z" fill="#FFDBBA" /><path d="M341.341365 56.887718h56.889223v56.889223h-56.889223z" fill="#FFCF00" /><path d="M341.341365 341.335341h56.889223v56.889224h-56.889223z" fill="#37C037" /><path d="M341.341365 398.220047h56.889223v56.889224h-56.889223z" fill="#148114" /><path d="M341.341365 739.555388h56.889223v56.889224h-56.889223zM341.341365 682.664659h56.889223v56.889223h-56.889223z" fill="#FF0303" /><path d="M341.341365 625.779953h56.889223v56.889223h-56.889223z" fill="#9D4B13" /><path d="M341.341365 568.887718h56.889223v56.889223h-56.889223z" fill="#C0743F" /><path d="M341.341365 512h56.889223v56.889224h-56.889223z" fill="#9D4B13" /><path d="M341.341365 455.112282h56.889223v56.889224h-56.889223z" fill="#FFE84E" /><path d="M341.341365 853.335341h56.889223v56.889224h-56.889223zM341.341365 796.444612h56.889223v56.889223h-56.889223z" fill="#FF9C00" /><path d="M398.223059 910.220047h56.889223v56.889224h-56.889223z" fill="#CE7F03" /><path d="M398.223059 284.444612h56.889223v56.889223h-56.889223zM398.223059 227.555388h56.889223v56.889224h-56.889223z" fill="#FFB600" /><path d="M398.223059 170.664659h56.889223v56.889223h-56.889223z" fill="#FFCF00" /><path d="M398.223059 113.779953h56.889223v56.889223h-56.889223zM398.223059 56.887718h56.889223v56.889223h-56.889223z" fill="#FFCF00" /><path d="M398.223059 341.335341h56.889223v56.889224h-56.889223z" fill="#37C037" /><path d="M398.223059 398.220047h56.889223v56.889224h-56.889223z" fill="#78C037" /><path d="M398.223059 739.555388h56.889223v56.889224h-56.889223z" fill="#D5BE24" /><path d="M398.223059 682.664659h56.889223v56.889223h-56.889223z" fill="#FF0303" /><path d="M398.223059 625.779953h56.889223v56.889223h-56.889223z" fill="#77370C" /><path d="M398.223059 568.887718h56.889223v56.889223h-56.889223z" fill="#C0743F" /><path d="M398.223059 512h56.889223v56.889224h-56.889223z" fill="#C0743F" /><path d="M398.223059 455.112282h56.889223v56.889224h-56.889223z" fill="#FFE84E" /><path d="M398.223059 853.335341h56.889223v56.889224h-56.889223zM398.223059 796.444612h56.889223v56.889223h-56.889223z" fill="#FF9C00" /><path d="M455.118306 910.220047h56.889223v56.889224h-56.889223z" fill="#CE7F03" /><path d="M455.118306 284.444612h56.889223v56.889223h-56.889223zM455.118306 227.555388h56.889223v56.889224h-56.889223z" fill="#FFB600" /><path d="M455.118306 170.664659h56.889223v56.889223h-56.889223z" fill="#FFCF00" /><path d="M455.118306 113.779953h56.889223v56.889223h-56.889223zM455.118306 56.887718h56.889223v56.889223h-56.889223z" fill="#FFCF00" /><path d="M455.118306 341.335341h56.889223v56.889224h-56.889223z" fill="#78C037" /><path d="M455.118306 398.220047h56.889223v56.889224h-56.889223z" fill="#78C037" /><path d="M455.118306 739.555388h56.889223v56.889224h-56.889223zM455.118306 682.664659h56.889223v56.889223h-56.889223z" fill="#FF0303" /><path d="M455.118306 625.779953h56.889223v56.889223h-56.889223z" fill="#77370C" /><path d="M455.118306 568.887718h56.889223v56.889223h-56.889223z" fill="#C0743F" /><path d="M455.118306 512h56.889223v56.889224h-56.889223z" fill="#FFE84E" /><path d="M455.118306 455.112282h56.889223v56.889224h-56.889223z" fill="#37C037" /><path d="M455.118306 853.335341h56.889223v56.889224h-56.889223zM455.118306 796.444612h56.889223v56.889223h-56.889223z" fill="#FF9C00" /><path d="M512 910.220047h56.889224v56.889224H512z" fill="#CE7F03" /><path d="M512 284.444612h56.889224v56.889223H512z" fill="#E7A910" /><path d="M512 227.555388h56.889224v56.889224H512z" fill="#FFB600" /><path d="M512 170.664659h56.889224v56.889223H512z" fill="#FFCF00" /><path d="M512 113.779953h56.889224v56.889223H512zM512 56.887718h56.889224v56.889223H512z" fill="#FFCF00" /><path d="M512 341.335341h56.889224v56.889224H512z" fill="#66F166" /><path d="M512 398.220047h56.889224v56.889224H512z" fill="#78C037" /><path d="M512 739.555388h56.889224v56.889224H512z" fill="#B21515" /><path d="M512 682.664659h56.889224v56.889223H512z" fill="#FF0303" /><path d="M512 625.779953h56.889224v56.889223H512z" fill="#77370C" /><path d="M512 568.887718h56.889224v56.889223H512z" fill="#9D4B13" /><path d="M512 512h56.889224v56.889224H512z" fill="#37C037" /><path d="M512 455.112282h56.889224v56.889224H512z" fill="#37C037" /><path d="M512 853.335341h56.889224v56.889224H512zM512 796.444612h56.889224v56.889223H512z" fill="#FF9C00" /><path d="M568.881694 910.220047h56.889224v56.889224h-56.889224z" fill="#CE7F03" /><path d="M568.881694 284.444612h56.889224v56.889223h-56.889224z" fill="#E7A910" /><path d="M568.881694 227.555388h56.889224v56.889224h-56.889224z" fill="#FFB600" /><path d="M568.881694 170.664659h56.889224v56.889223h-56.889224z" fill="#FFCF00" /><path d="M568.881694 113.779953h56.889224v56.889223h-56.889224zM568.881694 56.887718h56.889224v56.889223h-56.889224z" fill="#FFCF00" /><path d="M568.881694 341.335341h56.889224v56.889224h-56.889224z" fill="#37C037" /><path d="M568.881694 398.220047h56.889224v56.889224h-56.889224z" fill="#148114" /><path d="M568.881694 739.555388h56.889224v56.889224h-56.889224z" fill="#B21515" /><path d="M568.881694 682.664659h56.889224v56.889223h-56.889224z" fill="#FF0303" /><path d="M568.881694 625.779953h56.889224v56.889223h-56.889224z" fill="#77370C" /><path d="M568.881694 568.887718h56.889224v56.889223h-56.889224z" fill="#C0743F" /><path d="M568.881694 512h56.889224v56.889224h-56.889224z" fill="#9D4B13" /><path d="M568.881694 455.112282h56.889224v56.889224h-56.889224z" fill="#37C037" /><path d="M568.881694 853.335341h56.889224v56.889224h-56.889224zM568.881694 796.444612h56.889224v56.889223h-56.889224z" fill="#FF9C00" /><path d="M625.776941 910.220047h56.889224v56.889224h-56.889224z" fill="#CE7F03" /><path d="M625.776941 284.444612h56.889224v56.889223h-56.889224zM625.776941 227.555388h56.889224v56.889224h-56.889224z" fill="#FFB600" /><path d="M625.776941 170.664659h56.889224v56.889223h-56.889224z" fill="#FFCF00" /><path d="M625.776941 113.779953h56.889224v56.889223h-56.889224z" fill="#FFCF00" /><path d="M625.776941 56.887718h56.889224v56.889223h-56.889224z" fill="#FFDBBA" /><path d="M625.776941 341.335341h56.889224v56.889224h-56.889224z" fill="#66F166" /><path d="M625.776941 398.220047h56.889224v56.889224h-56.889224z" fill="#37C037" /><path d="M625.776941 739.555388h56.889224v56.889224h-56.889224z" fill="#B21515" /><path d="M625.776941 682.664659h56.889224v56.889223h-56.889224z" fill="#FF0303" /><path d="M625.776941 625.779953h56.889224v56.889223h-56.889224z" fill="#77370C" /><path d="M625.776941 568.887718h56.889224v56.889223h-56.889224z" fill="#C0743F" /><path d="M625.776941 512h56.889224v56.889224h-56.889224z" fill="#C0743F" /><path d="M625.776941 455.112282h56.889224v56.889224h-56.889224z" fill="#FFDE00" /><path d="M625.776941 853.335341h56.889224v56.889224h-56.889224zM625.776941 796.444612h56.889224v56.889223h-56.889224z" fill="#FF9C00" /><path d="M682.658635 910.220047h56.889224v56.889224h-56.889224z" fill="#CE7F03" /><path d="M682.658635 284.444612h56.889224v56.889223h-56.889224z" fill="#E7A910" /><path d="M682.658635 227.555388h56.889224v56.889224h-56.889224z" fill="#FFB600" /><path d="M682.658635 170.664659h56.889224v56.889223h-56.889224z" fill="#FFCF00" /><path d="M682.658635 113.779953h56.889224v56.889223h-56.889224zM682.658635 56.887718h56.889224v56.889223h-56.889224z" fill="#FFCF00" /><path d="M682.658635 341.335341h56.889224v56.889224h-56.889224z" fill="#37C037" /><path d="M682.658635 398.220047h56.889224v56.889224h-56.889224z" fill="#78C037" /><path d="M682.658635 739.555388h56.889224v56.889224h-56.889224z" fill="#B21515" /><path d="M682.658635 682.664659h56.889224v56.889223h-56.889224z" fill="#FF0303" /><path d="M682.658635 625.779953h56.889224v56.889223h-56.889224z" fill="#77370C" /><path d="M682.658635 568.887718h56.889224v56.889223h-56.889224z" fill="#C0743F" /><path d="M682.658635 512h56.889224v56.889224h-56.889224z" fill="#9D4B13" /><path d="M682.658635 455.112282h56.889224v56.889224h-56.889224z" fill="#FFE84E" /><path d="M682.658635 853.335341h56.889224v56.889224h-56.889224zM682.658635 796.444612h56.889224v56.889223h-56.889224z" fill="#FF9C00" /><path d="M739.552376 910.220047h56.889224v56.889224h-56.889224z" fill="#CE7F03" /><path d="M739.552376 284.444612h56.889224v56.889223h-56.889224z" fill="#E7A910" /><path d="M739.552376 227.555388h56.889224v56.889224h-56.889224z" fill="#FFB600" /><path d="M739.552376 170.664659h56.889224v56.889223h-56.889224z" fill="#FFCF00" /><path d="M739.552376 113.779953h56.889224v56.889223h-56.889224zM739.552376 56.887718h56.889224v56.889223h-56.889224z" fill="#FFCF00" /><path d="M739.552376 341.335341h56.889224v56.889224h-56.889224z" fill="#37C037" /><path d="M739.552376 398.220047h56.889224v56.889224h-56.889224z" fill="#78C037" /><path d="M739.552376 739.555388h56.889224v56.889224h-56.889224z" fill="#B21515" /><path d="M739.552376 682.664659h56.889224v56.889223h-56.889224z" fill="#FF0303" /><path d="M739.552376 625.779953h56.889224v56.889223h-56.889224z" fill="#77370C" /><path d="M739.552376 568.887718h56.889224v56.889223h-56.889224z" fill="#C0743F" /><path d="M739.552376 512h56.889224v56.889224h-56.889224z" fill="#FFE84E" /><path d="M739.552376 455.112282h56.889224v56.889224h-56.889224z" fill="#FFE84E" /><path d="M739.552376 853.335341h56.889224v56.889224h-56.889224zM739.552376 796.444612h56.889224v56.889223h-56.889224z" fill="#FF9C00" /><path d="M796.447624 910.220047h56.889223v56.889224h-56.889223z" fill="#CE7F03" /><path d="M796.447624 284.444612h56.889223v56.889223h-56.889223z" fill="#E7A910" /><path d="M796.447624 227.555388h56.889223v56.889224h-56.889223z" fill="#FFB600" /><path d="M796.447624 170.664659h56.889223v56.889223h-56.889223z" fill="#FFCF00" /><path d="M796.447624 113.779953h56.889223v56.889223h-56.889223zM796.447624 56.887718h56.889223v56.889223h-56.889223z" fill="#FFCF00" /><path d="M796.447624 341.335341h56.889223v56.889224h-56.889223z" fill="#66F166" /><path d="M796.447624 398.220047h56.889223v56.889224h-56.889223z" fill="#78C037" /><path d="M796.447624 739.555388h56.889223v56.889224h-56.889223zM796.447624 682.664659h56.889223v56.889223h-56.889223z" fill="#B21515" /><path d="M796.447624 625.779953h56.889223v56.889223h-56.889223z" fill="#77370C" /><path d="M796.447624 568.887718h56.889223v56.889223h-56.889223z" fill="#9D4B13" /><path d="M796.447624 512h56.889223v56.889224h-56.889223z" fill="#FFE84E" /><path d="M796.447624 455.112282h56.889223v56.889224h-56.889223z" fill="#148114" /><path d="M796.447624 853.335341h56.889223v56.889224h-56.889223zM796.447624 796.444612h56.889223v56.889223h-56.889223z" fill="#FF9C00" /><path d="M853.341365 910.220047h56.889223v56.889224h-56.889223z" fill="#CE7F03" /><path d="M853.341365 284.444612h56.889223v56.889223h-56.889223z" fill="#E7A910" /><path d="M853.341365 227.555388h56.889223v56.889224h-56.889223z" fill="#FFB600" /><path d="M853.341365 170.664659h56.889223v56.889223h-56.889223z" fill="#FFCF00" /><path d="M853.341365 113.779953h56.889223v56.889223h-56.889223z" fill="#FFDBBA" /><path d="M853.341365 56.887718h56.889223v56.889223h-56.889223z" fill="#FFCF00" /><path d="M853.341365 341.335341h56.889223v56.889224h-56.889223z" fill="#37C037" /><path d="M853.341365 398.220047h56.889223v56.889224h-56.889223z" fill="#148114" /><path d="M853.341365 739.555388h56.889223v56.889224h-56.889223z" fill="#B21515" /><path d="M853.341365 682.664659h56.889223v56.889223h-56.889223z" fill="#FF0303" /><path d="M853.341365 625.779953h56.889223v56.889223h-56.889223z" fill="#77370C" /><path d="M853.341365 568.887718h56.889223v56.889223h-56.889223z" fill="#9D4B13" /><path d="M853.341365 512h56.889223v56.889224h-56.889223z" fill="#FFE84E" /><path d="M853.341365 455.112282h56.889223v56.889224h-56.889223z" fill="#148114" /><path d="M853.341365 853.335341h56.889223v56.889224h-56.889223z" fill="#CE7F03" /><path d="M853.341365 796.444612h56.889223v56.889223h-56.889223z" fill="#FF9C00" /><path d="M910.223059 910.220047h56.889223v56.889224h-56.889223z" fill="#CE7F03" /><path d="M910.223059 284.444612h56.889223v56.889223h-56.889223z" fill="#E7A910" /><path d="M910.223059 227.555388h56.889223v56.889224h-56.889223z" fill="#FFB600" /><path d="M910.223059 170.664659h56.889223v56.889223h-56.889223z" fill="#FFCF00" /><path d="M910.223059 113.779953h56.889223v56.889223h-56.889223zM910.223059 56.887718h56.889223v56.889223h-56.889223z" fill="#FFCF00" /><path d="M910.223059 341.335341h56.889223v56.889224h-56.889223z" fill="#37C037" /><path d="M910.223059 398.220047h56.889223v56.889224h-56.889223z" fill="#148114" /><path d="M910.223059 739.555388h56.889223v56.889224h-56.889223zM910.223059 682.664659h56.889223v56.889223h-56.889223z" fill="#B21515" /><path d="M910.223059 625.779953h56.889223v56.889223h-56.889223z" fill="#77370C" /><path d="M910.223059 568.887718h56.889223v56.889223h-56.889223z" fill="#D5BE24" /><path d="M910.223059 512h56.889223v56.889224h-56.889223z" fill="#FFE84E" /><path d="M910.223059 455.112282h56.889223v56.889224h-56.889223z" fill="#FFDE00" /><path d="M910.223059 853.335341h56.889223v56.889224h-56.889223z" fill="#CE7F03" /><path d="M910.223059 796.444612h56.889223v56.889223h-56.889223z" fill="#FF9C00" /><path d="M967.118306 910.220047h56.889223v56.889224h-56.889223z" fill="#CE7F03" /><path d="M967.118306 284.444612h56.889223v56.889223h-56.889223z" fill="#E7A910" /><path d="M967.118306 227.555388h56.889223v56.889224h-56.889223z" fill="#FFB600" /><path d="M967.118306 170.664659h56.889223v56.889223h-56.889223z" fill="#FFCF00" /><path d="M967.118306 113.779953h56.889223v56.889223h-56.889223zM967.118306 56.887718h56.889223v56.889223h-56.889223z" fill="#FFCF00" /><path d="M967.118306 341.335341h56.889223v56.889224h-56.889223z" fill="#78C037" /><path d="M967.118306 398.220047h56.889223v56.889224h-56.889223z" fill="#148114" /><path d="M967.118306 739.555388h56.889223v56.889224h-56.889223zM967.118306 682.664659h56.889223v56.889223h-56.889223z" fill="#B21515" /><path d="M967.118306 625.779953h56.889223v56.889223h-56.889223z" fill="#77370C" /><path d="M967.118306 568.887718h56.889223v56.889223h-56.889223z" fill="#9D4B13" /><path d="M967.118306 512h56.889223v56.889224h-56.889223z" fill="#D5BE24" /><path d="M967.118306 455.112282h56.889223v56.889224h-56.889223z" fill="#FFDE00" /><path d="M967.118306 853.335341h56.889223v56.889224h-56.889223zM967.118306 796.444612h56.889223v56.889223h-56.889223z" fill="#FF9C00" /><path d="M1024 910.220047h56.889224v56.889224H1024z" fill="#CE7F03" /><path d="M1024 284.444612h56.889224v56.889223H1024z" fill="#E7A910" /><path d="M1024 227.555388h56.889224v56.889224H1024z" fill="#FFB600" /><path d="M1024 170.664659h56.889224v56.889223H1024z" fill="#E7A910" /><path d="M1024 113.779953h56.889224v56.889223H1024z" fill="#FFCF00" /><path d="M1024 56.887718h56.889224v56.889223H1024z" fill="#FFB600" /><path d="M1024 341.335341h56.889224v56.889224H1024z" fill="#148114" /><path d="M1024 398.220047h56.889224v56.889224H1024z" fill="#148114" /><path d="M1080.881694 398.220047h56.889224v56.889224h-56.889224z" fill="#148114" /><path d="M1137.776941 682.664659h56.889224v56.889223h-56.889224z" fill="#B21515" /><path d="M56.881694 682.664659h56.889224v56.889223H56.881694z" fill="#FF0303" /><path d="M1024 739.555388h56.889224v56.889224H1024z" fill="#B21515" /><path d="M1024 682.664659h56.889224v56.889223H1024z" fill="#77370C" /><path d="M1024 625.779953h56.889224v56.889223H1024zM1024 568.887718h56.889224v56.889223H1024z" fill="#77370C" /><path d="M1024 512h56.889224v56.889224H1024z" fill="#77370C" /><path d="M1024 455.112282h56.889224v56.889224H1024z" fill="#D5BE24" /><path d="M1024 853.335341h56.889224v56.889224H1024zM1024 796.444612h56.889224v56.889223H1024zM1137.776941 796.444612h56.889224v56.889223h-56.889224z" fill="#CE7F03" /><path d="M1080.881694 910.220047h56.889224v56.889224h-56.889224z" fill="#CE7F03" /><path d="M1080.881694 284.444612h56.889224v56.889223h-56.889224zM1080.881694 227.555388h56.889224v56.889224h-56.889224z" fill="#E7A910" /><path d="M1080.881694 170.664659h56.889224v56.889223h-56.889224z" fill="#FFB600" /><path d="M1080.881694 113.779953h56.889224v56.889223h-56.889224z" fill="#FFB600" /><path d="M1080.881694 739.555388h56.889224v56.889224h-56.889224zM1080.881694 682.664659h56.889224v56.889223h-56.889224z" fill="#B21515" /><path d="M1080.881694 625.779953h56.889224v56.889223h-56.889224zM1080.881694 568.887718h56.889224v56.889223h-56.889224z" fill="#77370C" /><path d="M1080.881694 512h56.889224v56.889224h-56.889224z" fill="#D5BE24" /><path d="M1080.881694 853.335341h56.889224v56.889224h-56.889224z" fill="#CE7F03" /><path d="M512 0h56.889224v56.889224H512zM568.881694 967.112282h56.889224v56.889224h-56.889224zM625.776941 0h56.889224v56.889224h-56.889224zM682.658635 967.112282h56.889224v56.889224h-56.889224zM739.552376 0h56.889224v56.889224h-56.889224zM796.447624 967.112282h56.889223v56.889224h-56.889223zM853.341365 0h56.889223v56.889224h-56.889223zM910.223059 967.112282h56.889223v56.889224h-56.889223zM967.118306 0h56.889223v56.889224h-56.889223zM1024 967.112282h56.889224v56.889224H1024z" fill="#3A2802" /><path d="M1024 0h56.889224v56.889224H1024zM1080.881694 967.112282h56.889224v56.889224h-56.889224z" fill="#3A2802" /><path d="M1080.881694 56.887718h56.889224v56.889223h-56.889224zM1137.776941 113.779953h56.889224v56.889223h-56.889224z" fill="#3A2802" /><path d="M1137.776941 170.664659h56.889224v56.889223h-56.889224zM1137.776941 512h56.889224v56.889224h-56.889224zM1137.776941 853.335341h56.889224v56.889224h-56.889224zM1137.776941 227.555388h56.889224v56.889224h-56.889224z" fill="#3A2802" /><path d="M1137.776941 568.887718h56.889224v56.889223h-56.889224zM1137.776941 910.220047h56.889224v56.889224h-56.889224zM1137.776941 284.444612h56.889224v56.889223h-56.889224zM1137.776941 625.779953h56.889224v56.889223h-56.889224z" fill="#3A2802" /><path d="M1194.658635 682.664659h56.889224v56.889223h-56.889224zM1137.776941 739.555388h56.889224v56.889224h-56.889224zM1080.881694 796.444612h56.889224v56.889223h-56.889224zM1080.881694 341.335341h56.889224v56.889224h-56.889224zM1137.776941 398.220047h56.889224v56.889224h-56.889224zM1080.881694 455.112282h56.889224v56.889224h-56.889224z" fill="#3A2802" /></svg>