<?xml version="1.0" standalone="no"?><!DOCTYPE svg PUBLIC "-//W3C//DTD SVG 1.1//EN" "http://www.w3.org/Graphics/SVG/1.1/DTD/svg11.dtd"><svg class="icon" width="200px" height="190.87px" viewBox="0 0 1073 1024" version="1.1" xmlns="http://www.w3.org/2000/svg"><path d="M438.859294 0h48.761977v48.761976H438.859294z" fill="#3A2802" /><path d="M438.859294 48.761976h48.761977v48.761977H438.859294z" fill="#FFDFB1" /><path d="M438.859294 97.523953h48.761977v48.761976H438.859294z" fill="#FFC03F" /><path d="M438.859294 146.285929h48.761977v48.761977H438.859294z" fill="#E34B16" /><path d="M438.859294 195.0464h48.761977v48.761976H438.859294z" fill="#FFC03F" /><path d="M438.859294 243.808376h48.761977v48.761977H438.859294z" fill="#FFD670" /><path d="M438.859294 292.570353h48.761977v48.761976H438.859294z" fill="#FF7352" /><path d="M438.859294 341.332329h48.761977v48.761977H438.859294zM438.859294 390.094306h48.761977v48.761976H438.859294zM438.859294 438.856282h48.761977v48.761977H438.859294z" fill="#F85934" /><path d="M438.859294 487.618259h48.761977v48.761976H438.859294zM438.859294 536.381741h48.761977v48.761977H438.859294zM438.859294 585.143718h48.761977v48.761976H438.859294z" fill="#FFD670" /><path d="M438.859294 633.905694h48.761977v48.761977H438.859294z" fill="#FFC506" /><path d="M438.859294 682.667671h48.761977v48.761976H438.859294z" fill="#FFC03F" /><path d="M438.859294 731.429647h48.761977v48.761977H438.859294zM536.377224 48.761976h48.761976v48.761977h-48.761976z" fill="#3A2802" /><path d="M536.377224 97.523953h48.761976v48.761976h-48.761976z" fill="#FFDFB1" /><path d="M536.377224 146.285929h48.761976v48.761977h-48.761976z" fill="#FFC03F" /><path d="M536.377224 195.0464h48.761976v48.761976h-48.761976z" fill="#E34B16" /><path d="M536.377224 243.808376h48.761976v48.761977h-48.761976z" fill="#FFC03F" /><path d="M536.377224 292.570353h48.761976v48.761976h-48.761976z" fill="#CB2802" /><path d="M536.377224 341.332329h48.761976v48.761977h-48.761976z" fill="#FF7352" /><path d="M536.377224 390.094306h48.761976v48.761976h-48.761976z" fill="#CB2802" /><path d="M536.377224 438.856282h48.761976v48.761977h-48.761976z" fill="#FFD670" /><path d="M536.377224 487.618259h48.761976v48.761976h-48.761976z" fill="#FFE00D" /><path d="M585.140706 536.381741h48.761976v48.761977H585.140706z" fill="#FF7352" /><path d="M536.377224 536.381741h48.761976v48.761977h-48.761976z" fill="#FFD670" /><path d="M536.377224 585.143718h48.761976v48.761976h-48.761976zM536.377224 633.905694h48.761976v48.761977h-48.761976z" fill="#CB2802" /><path d="M536.377224 682.667671h48.761976v48.761976h-48.761976z" fill="#FF9D2F" /><path d="M536.377224 731.429647h48.761976v48.761977h-48.761976zM487.622776 0h48.761977v48.761976h-48.761977z" fill="#3A2802" /><path d="M487.622776 48.761976h48.761977v48.761977h-48.761977z" fill="#FFC03F" /><path d="M487.622776 97.523953h48.761977v48.761976h-48.761977z" fill="#FFD670" /><path d="M487.622776 146.285929h48.761977v48.761977h-48.761977z" fill="#E34B16" /><path d="M487.622776 195.0464h48.761977v48.761976h-48.761977z" fill="#FFDE00" /><path d="M487.622776 243.808376h48.761977v48.761977h-48.761977z" fill="#FFD670" /><path d="M487.622776 292.570353h48.761977v48.761976h-48.761977zM487.622776 341.332329h48.761977v48.761977h-48.761977zM487.622776 390.094306h48.761977v48.761976h-48.761977z" fill="#F85934" /><path d="M487.622776 438.856282h48.761977v48.761977h-48.761977z" fill="#CB2802" /><path d="M487.622776 487.618259h48.761977v48.761976h-48.761977zM487.622776 536.381741h48.761977v48.761977h-48.761977z" fill="#FFD670" /><path d="M487.622776 585.143718h48.761977v48.761976h-48.761977zM487.622776 633.905694h48.761977v48.761977h-48.761977z" fill="#FFC506" /><path d="M487.622776 682.667671h48.761977v48.761976h-48.761977z" fill="#FF9D2F" /><path d="M487.622776 731.429647h48.761977v48.761977h-48.761977zM585.140706 48.761976h48.761976v48.761977H585.140706z" fill="#3A2802" /><path d="M585.140706 97.523953h48.761976v48.761976H585.140706z" fill="#FFC03F" /><path d="M585.140706 146.285929h48.761976v48.761977H585.140706z" fill="#FFDFB1" /><path d="M585.140706 195.0464h48.761976v48.761976H585.140706z" fill="#E34B16" /><path d="M585.140706 243.808376h48.761976v48.761977H585.140706z" fill="#FFDE00" /><path d="M585.140706 292.570353h48.761976v48.761976H585.140706z" fill="#FFC506" /><path d="M585.140706 341.332329h48.761976v48.761977H585.140706zM585.140706 390.094306h48.761976v48.761976H585.140706z" fill="#CB2802" /><path d="M585.140706 438.856282h48.761976v48.761977H585.140706z" fill="#FFC506" /><path d="M585.140706 487.618259h48.761976v48.761976H585.140706z" fill="#FFD670" /><path d="M633.905694 536.381741h48.761977v48.761977h-48.761977z" fill="#CB2802" /><path d="M633.905694 585.143718h48.761977v48.761976h-48.761977z" fill="#FF7352" /><path d="M585.140706 633.905694h48.761976v48.761977H585.140706z" fill="#CB2802" /><path d="M585.140706 682.667671h48.761976v48.761976H585.140706zM633.905694 48.761976h48.761977v48.761977h-48.761977z" fill="#3A2802" /><path d="M633.905694 97.523953h48.761977v48.761976h-48.761977zM633.905694 146.285929h48.761977v48.761977h-48.761977z" fill="#FFC03F" /><path d="M633.905694 195.0464h48.761977v48.761976h-48.761977z" fill="#FFC03F" /><path d="M633.905694 243.808376h48.761977v48.761977h-48.761977z" fill="#E34B16" /><path d="M633.905694 292.570353h48.761977v48.761976h-48.761977z" fill="#FFC03F" /><path d="M633.905694 341.332329h48.761977v48.761977h-48.761977z" fill="#FFD670" /><path d="M633.905694 390.094306h48.761977v48.761976h-48.761977zM633.905694 438.856282h48.761977v48.761977h-48.761977z" fill="#FFC506" /><path d="M633.905694 487.618259h48.761977v48.761976h-48.761977z" fill="#FFD670" /><path d="M585.140706 585.143718h48.761976v48.761976H585.140706z" fill="#F85934" /><path d="M633.905694 633.905694h48.761977v48.761977h-48.761977z" fill="#CB2802" /><path d="M633.905694 682.667671h48.761977v48.761976h-48.761977zM731.423624 146.285929h48.761976v48.761977h-48.761976z" fill="#3A2802" /><path d="M731.423624 195.0464h48.761976v48.761976h-48.761976zM731.423624 243.808376h48.761976v48.761977h-48.761976z" fill="#FFC03F" /><path d="M731.423624 292.570353h48.761976v48.761976h-48.761976z" fill="#E34B16" /><path d="M731.423624 341.332329h48.761976v48.761977h-48.761976z" fill="#FF9D2F" /><path d="M731.423624 390.094306h48.761976v48.761976h-48.761976z" fill="#FFD670" /><path d="M731.423624 438.856282h48.761976v48.761977h-48.761976z" fill="#FFDE00" /><path d="M731.423624 487.618259h48.761976v48.761976h-48.761976zM731.423624 536.381741h48.761976v48.761977h-48.761976z" fill="#FFD670" /><path d="M731.423624 585.143718h48.761976v48.761976h-48.761976zM731.423624 633.905694h48.761976v48.761977h-48.761976z" fill="#FFC03F" /><path d="M731.423624 682.667671h48.761976v48.761976h-48.761976z" fill="#FF9D2F" /><path d="M731.423624 731.429647h48.761976v48.761977h-48.761976z" fill="#FF9D2F" /><path d="M731.423624 780.191624h48.761976v48.761976h-48.761976zM780.188612 828.9536h48.761976v48.761976h-48.761976zM390.094306 48.761976h48.761976v48.761977h-48.761976z" fill="#3A2802" /><path d="M390.094306 97.523953h48.761976v48.761976h-48.761976zM390.094306 146.285929h48.761976v48.761977h-48.761976z" fill="#FFC03F" /><path d="M390.094306 195.0464h48.761976v48.761976h-48.761976z" fill="#FFDFB1" /><path d="M390.094306 243.808376h48.761976v48.761977h-48.761976z" fill="#FFD670" /><path d="M390.094306 292.570353h48.761976v48.761976h-48.761976z" fill="#F85934" /><path d="M390.094306 341.332329h48.761976v48.761977h-48.761976zM390.094306 390.094306h48.761976v48.761976h-48.761976z" fill="#CB2802" /><path d="M390.094306 438.856282h48.761976v48.761977h-48.761976zM390.094306 487.618259h48.761976v48.761976h-48.761976zM390.094306 536.381741h48.761976v48.761977h-48.761976zM390.094306 585.143718h48.761976v48.761976h-48.761976z" fill="#FFD670" /><path d="M390.094306 633.905694h48.761976v48.761977h-48.761976z" fill="#CB2802" /><path d="M390.094306 682.667671h48.761976v48.761976h-48.761976z" fill="#FFC506" /><path d="M390.094306 731.429647h48.761976v48.761977h-48.761976z" fill="#FF9D2F" /><path d="M390.094306 780.191624h48.761976v48.761976h-48.761976zM390.094306 828.9536h48.761976v48.761976h-48.761976z" fill="#3A2802" /><path d="M390.094306 877.714071h48.761976v48.761976h-48.761976zM390.094306 926.476047h48.761976v48.761977h-48.761976zM341.329318 97.523953h48.761976v48.761976h-48.761976zM341.329318 146.285929h48.761976v48.761977h-48.761976z" fill="#3A2802" /><path d="M341.329318 195.0464h48.761976v48.761976h-48.761976z" fill="#FFD670" /><path d="M292.576376 195.0464h48.761977v48.761976h-48.761977z" fill="#3A2802" /><path d="M341.329318 243.808376h48.761976v48.761977h-48.761976z" fill="#FFD670" /><path d="M292.576376 243.808376h48.761977v48.761977h-48.761977z" fill="#3A2802" /><path d="M341.329318 292.570353h48.761976v48.761976h-48.761976z" fill="#FFD670" /><path d="M292.576376 292.570353h48.761977v48.761976h-48.761977z" fill="#FFC03F" /><path d="M243.811388 292.570353h48.761977v48.761976h-48.761977z" fill="#3A2802" /><path d="M341.329318 341.332329h48.761976v48.761977h-48.761976z" fill="#F85934" /><path d="M292.576376 341.332329h48.761977v48.761977h-48.761977z" fill="#FFC03F" /><path d="M243.811388 341.332329h48.761977v48.761977h-48.761977z" fill="#3A2802" /><path d="M341.329318 390.094306h48.761976v48.761976h-48.761976z" fill="#FFD670" /><path d="M292.576376 390.094306h48.761977v48.761976h-48.761977z" fill="#FFC03F" /><path d="M243.811388 390.094306h48.761977v48.761976h-48.761977z" fill="#3A2802" /><path d="M341.329318 438.856282h48.761976v48.761977h-48.761976z" fill="#FFD670" /><path d="M292.576376 438.856282h48.761977v48.761977h-48.761977zM243.811388 438.856282h48.761977v48.761977h-48.761977z" fill="#FFD670" /><path d="M195.0464 438.856282h48.761976v48.761977h-48.761976z" fill="#3A2802" /><path d="M341.329318 487.618259h48.761976v48.761976h-48.761976z" fill="#FFD670" /><path d="M292.576376 487.618259h48.761977v48.761976h-48.761977z" fill="#FFD670" /><path d="M243.811388 487.618259h48.761977v48.761976h-48.761977z" fill="#FFC03F" /><path d="M195.0464 487.618259h48.761976v48.761976h-48.761976z" fill="#FF9D2F" /><path d="M146.282918 487.618259h48.761976v48.761976H146.282918z" fill="#3A2802" /><path d="M341.329318 536.381741h48.761976v48.761977h-48.761976z" fill="#FFD670" /><path d="M292.576376 536.381741h48.761977v48.761977h-48.761977z" fill="#FFD670" /><path d="M243.811388 536.381741h48.761977v48.761977h-48.761977z" fill="#FFDE00" /><path d="M195.0464 536.381741h48.761976v48.761977h-48.761976z" fill="#FFC03F" /><path d="M146.282918 536.381741h48.761976v48.761977H146.282918z" fill="#3A2802" /><path d="M341.329318 585.143718h48.761976v48.761976h-48.761976z" fill="#F85934" /><path d="M341.329318 633.905694h48.761976v48.761977h-48.761976z" fill="#FF7352" /><path d="M341.329318 682.667671h48.761976v48.761976h-48.761976z" fill="#CB2802" /><path d="M341.329318 731.429647h48.761976v48.761977h-48.761976zM341.329318 780.191624h48.761976v48.761976h-48.761976z" fill="#FFC03F" /><path d="M341.329318 828.9536h48.761976v48.761976h-48.761976z" fill="#FF9D2F" /><path d="M341.329318 877.714071h48.761976v48.761976h-48.761976z" fill="#FF9D2F" /><path d="M341.329318 926.476047h48.761976v48.761977h-48.761976z" fill="#FFC506" /><path d="M341.329318 975.238024h48.761976V1024h-48.761976z" fill="#3A2802" /><path d="M292.576376 585.143718h48.761977v48.761976h-48.761977z" fill="#FF7352" /><path d="M292.576376 633.905694h48.761977v48.761977h-48.761977z" fill="#F85934" /><path d="M292.576376 682.667671h48.761977v48.761976h-48.761977z" fill="#CB2802" /><path d="M292.576376 731.429647h48.761977v48.761977h-48.761977z" fill="#FFD670" /><path d="M292.576376 780.191624h48.761977v48.761976h-48.761977z" fill="#FFC03F" /><path d="M292.576376 828.9536h48.761977v48.761976h-48.761977z" fill="#3A2802" /><path d="M292.576376 877.714071h48.761977v48.761976h-48.761977zM292.576376 926.476047h48.761977v48.761977h-48.761977z" fill="#3A2802" /><path d="M243.811388 585.143718h48.761977v48.761976h-48.761977zM243.811388 633.905694h48.761977v48.761977h-48.761977z" fill="#FF7352" /><path d="M243.811388 682.667671h48.761977v48.761976h-48.761977z" fill="#CB2802" /><path d="M243.811388 731.429647h48.761977v48.761977h-48.761977z" fill="#FFC03F" /><path d="M243.811388 780.191624h48.761977v48.761976h-48.761977z" fill="#3A2802" /><path d="M195.0464 585.143718h48.761976v48.761976h-48.761976z" fill="#F85934" /><path d="M195.0464 633.905694h48.761976v48.761977h-48.761976z" fill="#CB2802" /><path d="M195.0464 682.667671h48.761976v48.761976h-48.761976z" fill="#FFDE00" /><path d="M195.0464 731.429647h48.761976v48.761977h-48.761976z" fill="#FFC03F" /><path d="M195.0464 780.191624h48.761976v48.761976h-48.761976z" fill="#FF9D2F" /><path d="M195.0464 828.9536h48.761976v48.761976h-48.761976z" fill="#3A2802" /><path d="M146.282918 585.143718h48.761976v48.761976H146.282918z" fill="#FF9D2F" /><path d="M97.529976 585.143718h48.761977v48.761976H97.529976z" fill="#3A2802" /><path d="M146.282918 633.905694h48.761976v48.761977H146.282918z" fill="#FFC03F" /><path d="M97.529976 633.905694h48.761977v48.761977H97.529976z" fill="#3A2802" /><path d="M146.282918 682.667671h48.761976v48.761976H146.282918z" fill="#FFD670" /><path d="M97.529976 682.667671h48.761977v48.761976H97.529976z" fill="#FFC03F" /><path d="M48.764988 682.667671h48.761977v48.761976H48.764988z" fill="#3A2802" /><path d="M146.282918 731.429647h48.761976v48.761977H146.282918z" fill="#FFDE00" /><path d="M97.529976 731.429647h48.761977v48.761977H97.529976z" fill="#FFD670" /><path d="M48.764988 731.429647h48.761977v48.761977H48.764988zM0 780.191624h48.761976v48.761976H0z" fill="#3A2802" /><path d="M146.282918 780.191624h48.761976v48.761976H146.282918z" fill="#FF9D2F" /><path d="M146.282918 828.9536h48.761976v48.761976H146.282918z" fill="#3A2802" /><path d="M97.529976 780.191624h48.761977v48.761976H97.529976z" fill="#FFD670" /><path d="M97.529976 828.9536h48.761977v48.761976H97.529976z" fill="#FFC506" /><path d="M97.529976 877.714071h48.761977v48.761976H97.529976z" fill="#3A2802" /><path d="M48.764988 780.191624h48.761977v48.761976H48.764988z" fill="#FFC03F" /><path d="M48.764988 828.9536h48.761977v48.761976H48.764988z" fill="#FF9D2F" /><path d="M48.764988 877.714071h48.761977v48.761976H48.764988zM0 828.9536h48.761976v48.761976H0zM682.670682 97.523953h48.761977v48.761976h-48.761977z" fill="#3A2802" /><path d="M682.670682 146.285929h48.761977v48.761977h-48.761977z" fill="#FFC03F" /><path d="M682.670682 195.0464h48.761977v48.761976h-48.761977z" fill="#FFD670" /><path d="M682.670682 243.808376h48.761977v48.761977h-48.761977z" fill="#FFC03F" /><path d="M682.670682 292.570353h48.761977v48.761976h-48.761977z" fill="#E34B16" /><path d="M682.670682 341.332329h48.761977v48.761977h-48.761977z" fill="#FFC03F" /><path d="M682.670682 390.094306h48.761977v48.761976h-48.761977zM682.670682 438.856282h48.761977v48.761977h-48.761977zM682.670682 487.618259h48.761977v48.761976h-48.761977z" fill="#FFD670" /><path d="M682.670682 536.381741h48.761977v48.761977h-48.761977z" fill="#FFC506" /><path d="M682.670682 585.143718h48.761977v48.761976h-48.761977z" fill="#CB2802" /><path d="M682.670682 633.905694h48.761977v48.761977h-48.761977zM682.670682 682.667671h48.761977v48.761976h-48.761977z" fill="#3A2802" /><path d="M682.670682 731.429647h48.761977v48.761977h-48.761977zM780.188612 146.285929h48.761976v48.761977h-48.761976z" fill="#3A2802" /><path d="M780.188612 195.0464h48.761976v48.761976h-48.761976z" fill="#FF9D2F" /><path d="M828.9536 195.0464h48.761976v48.761976h-48.761976zM828.9536 243.808376h48.761976v48.761977h-48.761976z" fill="#3A2802" /><path d="M828.9536 292.570353h48.761976v48.761976h-48.761976z" fill="#FFDFB1" /><path d="M828.9536 341.332329h48.761976v48.761977h-48.761976z" fill="#FFC03F" /><path d="M828.9536 390.094306h48.761976v48.761976h-48.761976zM828.9536 438.856282h48.761976v48.761977h-48.761976z" fill="#E34B16" /><path d="M828.9536 487.618259h48.761976v48.761976h-48.761976z" fill="#FFC03F" /><path d="M828.9536 536.381741h48.761976v48.761977h-48.761976z" fill="#FF9D2F" /><path d="M877.717082 292.570353h48.761977v48.761976h-48.761977z" fill="#3A2802" /><path d="M877.717082 341.332329h48.761977v48.761977h-48.761977z" fill="#FFD670" /><path d="M877.717082 390.094306h48.761977v48.761976h-48.761977zM877.717082 438.856282h48.761977v48.761977h-48.761977zM877.717082 487.618259h48.761977v48.761976h-48.761977zM877.717082 536.381741h48.761977v48.761977h-48.761977z" fill="#FFC03F" /><path d="M926.470024 292.570353h48.761976v48.761976h-48.761976z" fill="#3A2802" /><path d="M926.470024 341.332329h48.761976v48.761977h-48.761976z" fill="#FF9D2F" /><path d="M975.235012 341.332329h48.761976v48.761977h-48.761976zM1024 390.094306h48.761976v48.761976H1024zM1024 438.856282h48.761976v48.761977H1024zM1024 487.618259h48.761976v48.761976H1024z" fill="#3A2802" /><path d="M975.235012 390.094306h48.761976v48.761976h-48.761976zM975.235012 438.856282h48.761976v48.761977h-48.761976zM975.235012 487.618259h48.761976v48.761976h-48.761976z" fill="#FF9D2F" /><path d="M975.235012 536.381741h48.761976v48.761977h-48.761976z" fill="#3A2802" /><path d="M926.470024 390.094306h48.761976v48.761976h-48.761976zM926.470024 438.856282h48.761976v48.761977h-48.761976z" fill="#FFC03F" /><path d="M926.470024 487.618259h48.761976v48.761976h-48.761976z" fill="#E34B16" /><path d="M926.470024 536.381741h48.761976v48.761977h-48.761976z" fill="#FF9D2F" /><path d="M926.470024 585.143718h48.761976v48.761976h-48.761976z" fill="#3A2802" /><path d="M877.717082 585.143718h48.761977v48.761976h-48.761977zM828.9536 585.143718h48.761976v48.761976h-48.761976z" fill="#3A2802" /><path d="M780.188612 243.808376h48.761976v48.761977h-48.761976zM780.188612 292.570353h48.761976v48.761976h-48.761976z" fill="#FFC03F" /><path d="M780.188612 341.332329h48.761976v48.761977h-48.761976z" fill="#E34B16" /><path d="M780.188612 390.094306h48.761976v48.761976h-48.761976z" fill="#FF9D2F" /><path d="M780.188612 438.856282h48.761976v48.761977h-48.761976z" fill="#FFDE00" /><path d="M780.188612 487.618259h48.761976v48.761976h-48.761976z" fill="#FFC506" /><path d="M780.188612 536.381741h48.761976v48.761977h-48.761976z" fill="#FFC03F" /><path d="M780.188612 585.143718h48.761976v48.761976h-48.761976z" fill="#FF9D2F" /><path d="M780.188612 633.905694h48.761976v48.761977h-48.761976zM780.188612 682.667671h48.761976v48.761976h-48.761976z" fill="#3A2802" /><path d="M780.188612 731.429647h48.761976v48.761977h-48.761976z" fill="#3A2802" /></svg>